<svg width="24" height="24" viewBox="0 0 24 24" fill="none" xmlns="http://www.w3.org/2000/svg">
<path fill-rule="evenodd" clip-rule="evenodd" d="M23.7347 12.2729C23.7347 11.422 23.6577 10.6038 23.5145 9.81836H12.1094V14.4602H18.6266C18.3459 15.9602 17.4927 17.2311 16.2102 18.082V21.0929H20.1238C22.4137 19.0038 23.7347 15.9274 23.7347 12.2729Z" fill="white"/>
<path fill-rule="evenodd" clip-rule="evenodd" d="M12.1098 23.9993C15.3794 23.9993 18.1206 22.9248 20.1242 21.092L16.2106 18.0811C15.1262 18.8011 13.7391 19.2266 12.1098 19.2266C8.95575 19.2266 6.2861 17.1157 5.33384 14.2793H1.28809V17.3884C3.28069 21.3102 7.37598 23.9993 12.1098 23.9993Z" fill="white"/>
<path fill-rule="evenodd" clip-rule="evenodd" d="M5.33379 14.2804C5.09159 13.5604 4.95398 12.7913 4.95398 12.0004C4.95398 11.2095 5.09159 10.4404 5.33379 9.72042V6.61133H1.28804C0.467876 8.23133 0 10.0641 0 12.0004C0 13.9368 0.467876 15.7695 1.28804 17.3895L5.33379 14.2804Z" fill="white"/>
<path fill-rule="evenodd" clip-rule="evenodd" d="M12.1098 4.77273C13.8877 4.77273 15.484 5.37818 16.739 6.56727L20.2123 3.12545C18.1151 1.18909 15.3739 0 12.1098 0C7.37598 0 3.28069 2.68909 1.28809 6.61091L5.33384 9.72C6.2861 6.88364 8.95575 4.77273 12.1098 4.77273Z" fill="white"/>
</svg>
